<?xml version="1.0" encoding="utf-8"?><svg viewBox="0 0 1160 300" xmlns="http://www.w3.org/2000/svg" xmlns:xlink="http://www.w3.org/1999/xlink"><style>:root>svg{display:none}:root>svg:target{display:block}</style><svg fill="none" viewBox="0 0 319 57" id="AUTOBAHN" xmlns="http://www.w3.org/2000/svg"><path d="M51.061 55.236c-3.667 1.85-7.385 2.154-11.154.909-4.004-1.279-7.452-4.004-10.346-8.177-1.548-2.22-2.877-4.794-3.987-7.722l-1.615-4.29H12.048l-2.675 6.36c-.169.437-.253.79-.253 1.06 0 .269.05.572.152.908.134.303.387.589.757.858a2.56 2.56 0 001.312.353h.404V46H.944v-.505h.454c.774 0 1.531-.218 2.271-.656.774-.47 1.414-1.16 1.918-2.07L16.842 17.08c-1.312-2.96-2.708-4.996-4.189-6.107-1.245-.942-2.44-1.413-3.583-1.413-1.11 0-2.154.168-3.13.505l-.1-.505c2.422-1.245 4.744-1.867 6.965-1.867 2.759 0 5.232 1.077 7.419 3.23 2.153 2.12 4.054 5.182 5.703 9.186l7.318 18.068c2.76 6.83 5.586 11.524 8.48 14.081 1.177 1.043 2.388 1.767 3.633 2.17 1.245.404 2.288.606 3.13.606.874 0 1.715-.1 2.523-.303l.05.505zm-38.155-21.45h10.296l-3.533-9.337a135.46 135.46 0 00-.707-1.918 40.538 40.538 0 01-.606-1.766l-5.45 13.021zM82.046.426c.438 0 .892.016 1.363.05V.98c-3.97.303-6.83 2.187-8.58 5.653-1.144 2.254-1.716 5.114-1.716 8.58V33.23c-.067 4.24-1.43 7.554-4.088 9.943-2.658 2.355-6.46 3.533-11.406 3.533-4.913 0-8.833-1.212-11.76-3.634-2.927-2.456-4.374-5.72-4.34-9.792V13.648c0-.706-.27-1.295-.808-1.766-.505-.471-1.127-.707-1.867-.707h-.808v-.504h14.535v.504h-.807c-1.043 0-1.817.404-2.322 1.212-.235.37-.353.774-.353 1.21v19.28c0 3.567.925 6.394 2.776 8.48 1.85 2.086 4.29 3.129 7.318 3.129h.101c2.995 0 5.45-.976 7.369-2.927 1.918-1.952 2.877-4.627 2.877-8.025V15.213c0-4.542 1.194-8.143 3.583-10.8 2.423-2.659 5.4-3.988 8.933-3.988zm-5 22.004c-1.648-1.581-2.473-3.28-2.473-5.097 0-1.413.455-2.642 1.363-3.685 1.716-2.018 4.122-3.028 7.217-3.028h23.772c1.481-.034 2.776-.151 3.886-.353 1.111-.236 1.817-.42 2.12-.555v8.782h-.505v-.606c0-1.514-.454-2.742-1.362-3.685-.909-.942-2.137-1.43-3.685-1.463h-6.813v29.626c.067 1.211.622 2.12 1.665 2.726.471.269.993.403 1.565.403h.656V46H89.109v-.505h.656c.875 0 1.615-.302 2.22-.908.64-.606.977-1.33 1.01-2.17V12.74h-9.842c-1.379 0-2.59.252-3.633.757-2.12 1.01-3.18 2.59-3.18 4.744 0 1.279.404 2.591 1.211 3.937l-.504.252zm53.062 1.01c-.606-1.279-.908-2.49-.908-3.634 0-1.178.151-2.255.454-3.23.303-1.01.807-1.986 1.514-2.928.707-.975 1.699-1.783 2.978-2.422 1.749-.909 3.852-1.363 6.309-1.363 3.23 0 6.292.824 9.185 2.473 3.802 2.153 6.444 5.131 7.924 8.933.841 2.087 1.262 4.324 1.262 6.713 0 5.62-2.036 10.145-6.107 13.577-4.038 3.432-9.32 5.148-15.848 5.148-6.494 0-11.793-1.716-15.898-5.148-4.071-3.432-6.107-7.941-6.107-13.526 0-4.173 1.178-7.79 3.533-10.852 2.389-3.095 5.602-5.198 9.64-6.309l.303.455c-1.716 1.447-3.012 3.566-3.887 6.359-.874 2.793-1.312 5.804-1.312 9.034 0 5.451 1.262 9.791 3.785 13.022 2.524 3.23 5.821 4.845 9.893 4.845 4.105 0 7.402-1.514 9.892-4.543 2.523-3.061 3.785-7.1 3.785-12.112 0-3.029-.471-5.754-1.413-8.177-.908-2.456-2.237-4.34-3.987-5.652-1.75-1.346-3.701-2.02-5.855-2.02-2.389 0-4.323.623-5.804 1.868-2.086 1.784-3.129 4.055-3.129 6.814 0 .875.118 1.766.353 2.675h-.555z" fill="#fff"/><path d="M180.26 23.995a5.685 5.685 0 01-2.069 1.413c3.297.471 5.804 1.649 7.52 3.533 1.716 1.85 2.574 4.122 2.574 6.814 0 3.263-1.312 5.904-3.937 7.923-2.624 2.02-6.073 3.029-10.346 3.029s-7.621-1.044-10.044-3.13c-2.422-2.12-3.634-5.097-3.634-8.933v-.605l.555-.102c.673 5.014 2.759 8.26 6.259 9.741V14.305c-.068-.909-.421-1.65-1.06-2.221-.606-.606-1.346-.909-2.221-.909h-.605v-.504h8.479c3.162 0 5.686.723 7.57 2.17 1.918 1.447 2.877 3.348 2.877 5.703 0 2.322-.639 4.139-1.918 5.45zm-9.842-11.71v32.302c1.111.168 2.389.252 3.836.252 3.23 0 5.737-.858 7.52-2.574 1.817-1.75 2.726-4.004 2.726-6.763 0-1.48-.286-2.793-.858-3.937-.539-1.144-1.228-2.035-2.07-2.675-2.22-1.716-5.35-2.573-9.387-2.573h-.051l-.05-.455h.05c1.716 0 3.18-.555 4.391-1.665 1.245-1.144 1.868-2.894 1.868-5.25 0-4.44-2.44-6.661-7.319-6.661h-.656zm25.829-3.33c2.187-.909 4.29-1.363 6.309-1.363 1.682 0 3.415.622 5.198 1.867.976.673 2.069 1.986 3.281 3.937.807 1.346 1.833 3.785 3.078 7.318l6.158 17.463c1.413 3.903 2.843 6.999 4.29 9.287 1.48 2.321 2.826 4.054 4.037 5.198 1.212 1.178 2.473 2.002 3.786 2.473 1.312.471 2.389.707 3.23.707.875 0 1.648-.067 2.321-.202l.051.505c-1.615.538-3.197.807-4.744.807-1.548 0-3.096-.404-4.644-1.211-1.547-.774-2.994-1.868-4.34-3.28-2.894-2.928-5.35-7.386-7.369-13.375l-1.968-5.754h-13.829l-3.483 8.984a3.132 3.132 0 00-.252 1.21c0 .405.168.842.505 1.313.37.438.925.656 1.665.656h.404V46h-10.145v-.505h.455c.807 0 1.598-.235 2.372-.706.774-.505 1.413-1.245 1.918-2.221l12.516-29.98c-1.817-2.59-4.071-3.886-6.763-3.886-1.211 0-2.506.253-3.886.757l-.151-.504zm5.4 22.863h12.769l-3.987-11.76c-.774-2.254-1.481-4.02-2.12-5.3l-6.662 17.06zm60.332 13.677h.605V46h-11.002v-.505h.656c.841 0 1.564-.286 2.17-.858a3.311 3.311 0 001.06-2.22V29.294h-19.532v13.173c0 4.71-1.144 7.873-3.432 9.489-1.043.74-2.389 1.295-4.038 1.665l-.252-.454c1.514-.808 2.624-2.053 3.331-3.735.74-1.682 1.11-4.004 1.11-6.965V14.305a2.94 2.94 0 00-.959-2.221 3.19 3.19 0 00-2.271-.909h-.605v-.504h11.002v.504h-.656a3.19 3.19 0 00-2.271.909c-.606.605-.925 1.346-.959 2.22V27.78h19.532V15.213c.034-4.307.993-7.301 2.877-8.984 1.144-1.01 2.692-1.733 4.643-2.17l.252.454c-1.514.808-2.641 2.053-3.381 3.735-.74 1.682-1.11 4.004-1.11 6.965v27.103c0 .874.302 1.631.908 2.27.639.607 1.413.91 2.322.91zm56.524 8.177c-2.692.84-5.114.992-7.268.454-2.254-.606-4.206-1.548-5.854-2.827-1.582-1.278-3.197-2.81-4.846-4.592l-26.598-29.475v25.235c.034 1.178.556 2.053 1.565 2.625.471.269.976.403 1.514.403h.959V46h-10.397v-.505h.959a3.05 3.05 0 002.17-.858c.606-.605.909-1.346.909-2.22V14.708a41.54 41.54 0 00-1.01-1.312 41.618 41.618 0 00-1.261-1.615 62.891 62.891 0 00-1.363-1.565c-.572-.673-1.11-1.21-1.615-1.615-.471-.403-1.026-.875-1.666-1.413a9.85 9.85 0 00-3.23-1.665c-1.144-.337-2.103-.505-2.877-.505-.807 0-1.665.134-2.574.404l-.201-.505c1.615-.673 3.179-1.01 4.693-1.01 1.481 0 2.759.186 3.836.556 1.077.336 2.238.959 3.483 1.867 1.244.909 2.254 1.75 3.028 2.524.807.774 1.766 1.783 2.877 3.028l25.437 28.263V14.254c-.034-.875-.354-1.598-.959-2.17-.606-.606-1.329-.909-2.17-.909h-.959v-.504h10.397v.504h-.909c-.841 0-1.564.303-2.17.909a2.973 2.973 0 00-.959 2.12v28.515c.336.37.807.926 1.413 1.666.639.74 1.077 1.262 1.312 1.565.27.302.656.74 1.161 1.312.505.572.925 1.01 1.262 1.312.37.337.807.74 1.312 1.211.539.505 1.026.892 1.464 1.161l1.564 1.01a9.787 9.787 0 002.726 1.06c1.043.235 1.884.353 2.523.353.673 0 1.38-.068 2.12-.202l.202.505z" fill="#EB5757"/></svg><svg fill="none" viewBox="0 0 106 20" id="AUTOBAHN-110" xmlns="http://www.w3.org/2000/svg"><path d="M16.613 19.056c-1.213.612-2.443.712-3.69.3-1.325-.423-2.466-1.325-3.423-2.705-.512-.735-.952-1.586-1.32-2.554l-.534-1.42h-3.94l-.885 2.104a1.037 1.037 0 00-.084.35c0 .09.017.19.05.301.045.1.129.195.251.284a.846.846 0 00.434.117h.134V16H.032v-.167h.15c.257 0 .507-.072.752-.217.256-.156.468-.384.635-.685l3.723-8.499c-.434-.98-.896-1.653-1.386-2.02-.412-.312-.807-.468-1.185-.468-.368 0-.713.056-1.036.167l-.033-.167c.802-.412 1.57-.617 2.304-.617.913 0 1.731.356 2.455 1.068.712.701 1.341 1.714 1.887 3.04l2.42 5.977c.914 2.26 1.849 3.812 2.806 4.658.39.346.79.585 1.202.718.412.134.757.2 1.035.2.29 0 .568-.032.835-.1l.017.168zM3.99 11.959h3.406L6.227 8.87a45.372 45.372 0 00-.234-.634c-.1-.279-.167-.473-.2-.585L3.99 11.96zM26.864.922c.145 0 .295.006.451.017v.167c-1.314.1-2.26.723-2.839 1.87-.378.746-.567 1.692-.567 2.838v5.961c-.023 1.403-.473 2.5-1.353 3.29-.88.78-2.137 1.169-3.774 1.169-1.625 0-2.922-.401-3.89-1.203-.968-.812-1.447-1.892-1.436-3.239V5.297a.745.745 0 00-.267-.585.871.871 0 00-.618-.233h-.267v-.167h4.809v.167h-.267c-.346 0-.602.133-.768.4a.732.732 0 00-.117.401v6.379c0 1.18.306 2.115.918 2.805.612.69 1.42 1.035 2.421 1.035h.034c.99 0 1.803-.323 2.437-.968.635-.646.952-1.531.952-2.655V5.814c0-1.502.395-2.693 1.186-3.573.801-.88 1.786-1.319 2.955-1.319zm-1.654 7.28c-.545-.523-.818-1.085-.818-1.686 0-.468.15-.874.45-1.22.568-.667 1.364-1.001 2.388-1.001h7.865c.49-.011.918-.05 1.286-.117.367-.078.6-.14.701-.184V6.9h-.167v-.2c0-.502-.15-.908-.45-1.22-.301-.311-.708-.473-1.22-.484h-2.254v9.802c.022.4.206.701.551.901.156.09.328.134.518.134h.217V16H29.2v-.167h.217a1 1 0 00.735-.3c.211-.2.322-.44.334-.718V4.995H27.23c-.456 0-.857.084-1.202.25-.701.335-1.052.858-1.052 1.57 0 .423.134.857.401 1.303l-.167.083zm17.555.334c-.2-.423-.3-.824-.3-1.202 0-.39.05-.746.15-1.069.1-.334.267-.656.5-.968.234-.323.563-.59.986-.802.578-.3 1.274-.45 2.087-.45 1.069 0 2.081.272 3.039.818 1.258.712 2.132 1.697 2.621 2.955.279.69.418 1.43.418 2.221 0 1.859-.674 3.356-2.02 4.492-1.337 1.135-3.084 1.703-5.244 1.703-2.148 0-3.901-.568-5.26-1.703-1.346-1.136-2.02-2.628-2.02-4.475 0-1.38.39-2.577 1.169-3.59.79-1.024 1.853-1.72 3.19-2.088l.1.15c-.568.48-.997 1.18-1.286 2.105a9.95 9.95 0 00-.434 2.989c0 1.803.417 3.239 1.252 4.308.835 1.068 1.926 1.603 3.273 1.603 1.358 0 2.449-.502 3.272-1.503.835-1.013 1.253-2.35 1.253-4.008 0-1.002-.156-1.903-.468-2.705-.3-.812-.74-1.436-1.319-1.87a3.1 3.1 0 00-1.937-.668c-.79 0-1.43.206-1.92.618-.69.59-1.035 1.341-1.035 2.254 0 .29.039.585.117.885h-.184z" fill="#fff"/><path d="M59.357 8.72a1.88 1.88 0 01-.685.467c1.091.156 1.92.546 2.488 1.17.568.612.852 1.363.852 2.253 0 1.08-.434 1.954-1.303 2.622-.868.668-2.009 1.002-3.423 1.002-1.413 0-2.52-.345-3.322-1.036-.802-.7-1.203-1.686-1.203-2.955v-.2l.184-.034c.223 1.659.913 2.733 2.07 3.223V5.514a1.05 1.05 0 00-.35-.735 1 1 0 00-.735-.3h-.2v-.167h2.805c1.047 0 1.881.239 2.505.718.634.478.952 1.107.952 1.886 0 .769-.212 1.37-.635 1.804zm-3.256-3.874v10.687c.367.055.79.083 1.269.083 1.069 0 1.898-.284 2.488-.852.601-.579.902-1.324.902-2.237 0-.49-.095-.924-.284-1.302-.178-.379-.407-.674-.685-.886-.734-.567-1.77-.851-3.106-.851h-.016l-.017-.15h.017c.567 0 1.052-.184 1.452-.551.412-.379.618-.958.618-1.737 0-1.47-.807-2.204-2.42-2.204H56.1zm8.545-1.102c.724-.3 1.42-.45 2.087-.45.557 0 1.13.205 1.72.617.323.223.685.657 1.085 1.302.267.446.607 1.253 1.019 2.421l2.037 5.778c.468 1.291.94 2.315 1.42 3.072.49.768.934 1.342 1.335 1.72.4.39.818.662 1.252.818.435.156.79.234 1.07.234.288 0 .545-.022.767-.067l.017.167a4.947 4.947 0 01-1.57.267c-.512 0-1.024-.133-1.536-.4a5.2 5.2 0 01-1.436-1.086c-.957-.968-1.77-2.443-2.438-4.425l-.65-1.903h-4.576l-1.152 2.972a1.036 1.036 0 00-.084.4c0 .134.056.28.167.435.123.145.306.217.551.217h.134V16h-3.356v-.167h.15c.267 0 .529-.078.785-.234.256-.167.467-.412.634-.734l4.141-9.919c-.6-.857-1.347-1.286-2.237-1.286-.4 0-.83.084-1.286.25l-.05-.166zm1.787 7.564h4.224l-1.319-3.89c-.256-.746-.49-1.33-.701-1.754l-2.204 5.644zm19.96 4.525h.2V16h-3.64v-.167h.217c.278 0 .518-.095.718-.284.212-.2.328-.445.35-.734v-4.342h-6.461v4.358c0 1.559-.379 2.605-1.136 3.14-.345.244-.79.428-1.336.55l-.083-.15c.5-.267.868-.679 1.102-1.236.245-.556.367-1.324.367-2.304V5.514a.973.973 0 00-.317-.735c-.211-.2-.462-.3-.751-.3h-.2v-.167h3.64v.167h-.218a1.056 1.056 0 00-1.068 1.035v4.458h6.462V5.814c.01-1.424.328-2.415.951-2.972.379-.334.891-.573 1.537-.718l.083.15c-.5.268-.874.68-1.119 1.236-.245.557-.367 1.325-.367 2.304v8.967c0 .29.1.54.3.752.212.2.468.3.769.3zm18.7 2.705c-.89.278-1.692.328-2.404.15-.746-.2-1.392-.512-1.937-.935a15.282 15.282 0 01-1.603-1.52l-8.8-9.75v8.348c.011.39.184.68.518.868.155.09.322.134.5.134h.318V16h-3.44v-.167h.317a1 1 0 001.019-1.018V5.647a13.958 13.958 0 00-.334-.434c-.167-.222-.306-.4-.417-.534a20.448 20.448 0 00-.451-.518c-.19-.222-.368-.4-.535-.534-.155-.134-.34-.29-.55-.467a3.26 3.26 0 00-1.07-.551c-.378-.112-.695-.167-.951-.167-.267 0-.551.044-.852.133l-.066-.167a4.027 4.027 0 011.552-.334c.49 0 .913.061 1.27.184.356.111.74.317 1.152.618a8.6 8.6 0 011.002.835c.267.256.584.59.951 1.001l8.416 9.351V5.497a1.002 1.002 0 00-.317-.718.98.98 0 00-.718-.3h-.318v-.167h3.44v.167h-.3a.98.98 0 00-.719.3.984.984 0 00-.317.702v9.434c.112.122.267.306.468.55.211.246.356.418.434.518l.384.434c.167.19.306.334.417.435.123.11.268.244.435.4.178.167.339.295.484.384l.517.334c.268.156.568.273.902.351.345.078.623.117.835.117.223 0 .456-.022.701-.067l.067.167z" fill="#EB5757"/></svg><svg fill="none" viewBox="0 0 173 31" id="AUTOBAHN-180" xmlns="http://www.w3.org/2000/svg"><path d="M27.73 30c-1.985 1.002-3.998 1.166-6.038.492-2.168-.692-4.035-2.168-5.601-4.426-.838-1.203-1.558-2.596-2.159-4.18l-.874-2.323H6.61L5.16 23.005c-.09.237-.136.428-.136.574 0 .146.027.31.082.492.073.164.21.319.41.464.218.128.455.192.71.192h.219V25H.598v-.273h.246a2.39 2.39 0 001.23-.355c.419-.256.765-.629 1.038-1.12L9.205 9.343C8.495 7.74 7.74 6.639 6.937 6.038c-.674-.51-1.32-.765-1.94-.765-.6 0-1.165.09-1.694.273l-.054-.273c1.311-.674 2.568-1.011 3.77-1.011 1.494 0 2.833.582 4.017 1.748 1.166 1.148 2.195 2.805 3.088 4.973l3.961 9.782c1.494 3.698 3.024 6.239 4.59 7.623.638.565 1.294.956 1.968 1.175.674.219 1.239.328 1.694.328.474 0 .929-.055 1.366-.164l.027.273zM7.075 18.388h5.574l-1.913-5.055a75.231 75.231 0 00-.382-1.038 21.91 21.91 0 01-.328-.957l-2.95 7.05zM44.504.327c.238 0 .484.01.739.027v.274c-2.15.164-3.698 1.184-4.645 3.06-.62 1.22-.93 2.769-.93 4.645v9.754c-.036 2.295-.773 4.09-2.212 5.383-1.44 1.275-3.498 1.913-6.176 1.913-2.659 0-4.781-.656-6.366-1.968-1.585-1.33-2.368-3.096-2.35-5.3V7.484c0-.382-.145-.7-.437-.956a1.426 1.426 0 00-1.01-.382h-.438v-.273h7.87v.273h-.438c-.565 0-.984.218-1.257.656-.127.2-.191.419-.191.655v10.438c0 1.93.5 3.46 1.503 4.59 1.001 1.13 2.322 1.694 3.961 1.694h.055c1.621 0 2.951-.528 3.99-1.584 1.038-1.057 1.557-2.505 1.557-4.345V8.333c0-2.46.646-4.408 1.94-5.847C40.98 1.046 42.592.327 44.505.327zM41.799 12.24c-.892-.856-1.339-1.776-1.339-2.76 0-.765.246-1.43.738-1.994.93-1.093 2.231-1.64 3.907-1.64h12.87a13.626 13.626 0 002.104-.19c.6-.128.983-.229 1.147-.301v4.754h-.273V9.78c0-.82-.246-1.485-.738-1.995s-1.157-.774-1.994-.792h-3.69v16.039c.037.655.338 1.147.903 1.475.255.146.537.219.847.219h.355V25h-8.306v-.273h.355c.473 0 .874-.164 1.202-.492a1.66 1.66 0 00.546-1.175V6.994h-5.328c-.746 0-1.402.137-1.967.41-1.148.546-1.721 1.402-1.721 2.568 0 .692.218 1.403.656 2.131l-.274.137zm28.726.546c-.328-.692-.492-1.348-.492-1.967 0-.637.082-1.22.246-1.749a5.069 5.069 0 01.82-1.584c.383-.529.92-.966 1.612-1.312.947-.492 2.086-.738 3.416-.738 1.748 0 3.406.447 4.972 1.34 2.059 1.165 3.489 2.777 4.29 4.836.456 1.129.683 2.34.683 3.634 0 3.042-1.102 5.492-3.306 7.35-2.186 1.857-5.046 2.787-8.58 2.787-3.515 0-6.384-.93-8.606-2.787-2.204-1.858-3.306-4.3-3.306-7.323 0-2.259.637-4.217 1.912-5.875 1.293-1.675 3.033-2.814 5.219-3.415l.164.246c-.93.783-1.63 1.93-2.104 3.443-.474 1.511-.71 3.142-.71 4.89 0 2.951.683 5.301 2.049 7.05 1.366 1.749 3.151 2.623 5.355 2.623 2.223 0 4.008-.82 5.356-2.46 1.366-1.657 2.049-3.843 2.049-6.557 0-1.64-.255-3.115-.765-4.426-.492-1.33-1.212-2.35-2.159-3.06-.947-.729-2.003-1.093-3.17-1.093-1.292 0-2.34.337-3.141 1.01-1.13.966-1.695 2.196-1.695 3.69 0 .473.064.956.192 1.447h-.3z" fill="#fff"/><path d="M97.675 13.087a3.078 3.078 0 01-1.12.765c1.785.255 3.142.893 4.071 1.913.929 1.002 1.394 2.231 1.394 3.688 0 1.767-.711 3.197-2.132 4.29-1.42 1.093-3.288 1.64-5.601 1.64s-4.126-.565-5.437-1.694c-1.312-1.148-1.968-2.76-1.968-4.837v-.328l.301-.054c.364 2.714 1.494 4.472 3.388 5.273V7.841c-.036-.492-.228-.893-.574-1.202a1.636 1.636 0 00-1.202-.492h-.328v-.273h4.59c1.713 0 3.079.391 4.099 1.175 1.038.783 1.557 1.812 1.557 3.087 0 1.257-.346 2.24-1.038 2.951zm-5.328-6.339v17.487c.601.091 1.293.137 2.077.137 1.748 0 3.105-.465 4.07-1.394.984-.947 1.476-2.168 1.476-3.661 0-.802-.155-1.512-.464-2.131-.292-.62-.665-1.102-1.12-1.449-1.203-.929-2.897-1.393-5.083-1.393h-.027l-.027-.246h.027c.93 0 1.721-.3 2.377-.902.674-.619 1.011-1.566 1.011-2.841 0-2.405-1.32-3.607-3.962-3.607h-.355zm13.983-1.803c1.184-.492 2.322-.738 3.415-.738.911 0 1.849.337 2.815 1.01.528.365 1.12 1.076 1.776 2.132.437.729.992 2.05 1.666 3.962l3.334 9.454c.765 2.113 1.539 3.789 2.322 5.027.802 1.257 1.53 2.195 2.186 2.815.656.637 1.339 1.084 2.049 1.338.711.256 1.294.383 1.749.383.474 0 .893-.036 1.257-.11l.027.274a8.091 8.091 0 01-2.568.437c-.838 0-1.676-.218-2.514-.656-.838-.419-1.621-1.01-2.35-1.776-1.566-1.584-2.896-3.998-3.989-7.24l-1.066-3.115h-7.486l-1.885 4.863a1.678 1.678 0 00-.137.656c0 .219.091.455.273.71.201.237.501.356.902.356h.218V25h-5.492v-.273h.246c.437 0 .866-.128 1.285-.383.418-.273.765-.674 1.038-1.202l6.776-16.23c-.984-1.403-2.204-2.104-3.661-2.104-.656 0-1.357.137-2.104.41l-.082-.273zm2.923 12.377h6.913l-2.158-6.366c-.419-1.22-.802-2.177-1.148-2.87l-3.607 9.236zm32.662 7.405h.328V25h-5.956v-.273h.355c.455 0 .847-.155 1.175-.465.346-.328.537-.728.574-1.202v-7.104h-10.575v7.131c0 2.55-.619 4.263-1.858 5.137-.564.4-1.293.701-2.185.902l-.137-.246c.82-.437 1.421-1.111 1.803-2.022.401-.91.601-2.168.601-3.77V7.84c0-.474-.173-.874-.519-1.202a1.727 1.727 0 00-1.229-.492h-.328v-.273h5.956v.273h-.355a1.727 1.727 0 00-1.749 1.694v7.295h10.575V8.333c.018-2.332.537-3.953 1.557-4.864.619-.546 1.457-.938 2.514-1.175l.136.246c-.819.437-1.43 1.111-1.83 2.022-.401.91-.601 2.168-.601 3.77v14.673c0 .474.164.884.491 1.23a1.76 1.76 0 001.257.492zm30.601 4.426c-1.457.456-2.769.538-3.935.246-1.22-.328-2.277-.838-3.169-1.53a25.069 25.069 0 01-2.623-2.486l-14.4-15.957v13.661c.019.638.301 1.111.847 1.421.255.146.529.219.82.219h.519V25h-5.628v-.273h.519a1.635 1.635 0 001.667-1.667v-15a25.151 25.151 0 00-.547-.71 22.497 22.497 0 00-.683-.875c-.182-.219-.428-.501-.738-.847a6.543 6.543 0 00-.874-.875c-.255-.218-.556-.473-.902-.765a5.331 5.331 0 00-1.748-.901c-.62-.182-1.139-.274-1.558-.274-.437 0-.902.073-1.393.219l-.11-.273c.875-.365 1.722-.547 2.541-.547.802 0 1.494.1 2.077.3.583.183 1.211.52 1.885 1.012.674.492 1.221.947 1.64 1.366.437.419.956.965 1.557 1.64l13.771 15.3V7.815a1.637 1.637 0 00-.519-1.175 1.605 1.605 0 00-1.175-.492h-.519v-.273h5.629v.273h-.492c-.456 0-.847.164-1.175.492-.328.31-.501.692-.519 1.147v15.438c.182.2.437.5.765.902.346.4.583.683.71.847l.629.71c.273.31.5.547.683.71.2.183.437.401.71.656.291.274.556.483.792.629l.847.546c.438.255.929.446 1.476.574.565.128 1.02.191 1.366.191.364 0 .747-.036 1.148-.11l.109.274z" fill="#EB5757"/></svg><svg fill="none" viewBox="0 0 211 39" id="AUTOBAHN-220" xmlns="http://www.w3.org/2000/svg"><path d="M33.226 37.111c-2.427 1.225-4.887 1.425-7.38.601-2.65-.846-4.931-2.649-6.846-5.41-1.024-1.469-1.904-3.172-2.638-5.11l-1.069-2.838H7.412l-1.77 4.208c-.112.29-.167.523-.167.701 0 .179.033.379.1.602.089.2.256.39.5.567.268.156.558.234.87.234h.266V31H.065v-.334h.3c.512 0 1.013-.145 1.503-.434.512-.312.935-.768 1.27-1.37l7.446-16.997c-.868-1.96-1.792-3.307-2.772-4.041-.823-.624-1.614-.935-2.37-.935-.735 0-1.425.111-2.071.334l-.067-.334c1.603-.824 3.14-1.236 4.609-1.236 1.825 0 3.462.712 4.909 2.137 1.425 1.403 2.683 3.429 3.773 6.078l4.843 11.956c1.825 4.52 3.695 7.625 5.61 9.317.78.69 1.58 1.169 2.405 1.436.823.267 1.514.4 2.07.4.579 0 1.135-.066 1.67-.2l.033.334zM7.98 22.918h6.813l-2.338-6.178a91.734 91.734 0 00-.467-1.269 26.88 26.88 0 01-.4-1.169l-3.608 8.616zM53.73.844c.289 0 .59.011.9.034v.333c-2.626.2-4.518 1.448-5.676 3.74-.757 1.492-1.136 3.385-1.136 5.678V22.55c-.044 2.805-.946 4.998-2.705 6.579-1.759 1.558-4.274 2.338-7.547 2.338-3.25 0-5.844-.802-7.781-2.405-1.937-1.625-2.894-3.785-2.872-6.479V9.594a1.49 1.49 0 00-.534-1.17c-.334-.31-.746-.467-1.236-.467h-.534v-.334h9.617v.334h-.534c-.69 0-1.202.267-1.536.802a1.463 1.463 0 00-.234.801v12.757c0 2.36.612 4.23 1.837 5.61 1.224 1.381 2.838 2.071 4.842 2.071h.067c1.981 0 3.607-.646 4.876-1.937 1.269-1.291 1.903-3.061 1.903-5.31V10.63c0-3.006.79-5.388 2.371-7.147C49.42 1.724 51.391.844 53.728.844zm-3.309 14.56c-1.09-1.046-1.636-2.17-1.636-3.373 0-.934.3-1.747.901-2.437 1.136-1.336 2.728-2.004 4.776-2.004H70.19c.98-.022 1.837-.1 2.572-.234.734-.156 1.202-.278 1.402-.367v5.81h-.334v-.4c0-1.002-.3-1.815-.902-2.438-.6-.623-1.413-.946-2.437-.968h-4.509v19.603c.045.801.412 1.402 1.102 1.803a2.05 2.05 0 001.035.267h.435V31H58.4v-.334h.435c.578 0 1.068-.2 1.469-.601.423-.4.646-.88.668-1.436V8.993H54.46c-.913 0-1.714.167-2.405.5-1.402.668-2.103 1.715-2.103 3.14 0 .846.267 1.714.801 2.605l-.334.166zm35.11.668c-.401-.846-.602-1.647-.602-2.404 0-.78.1-1.492.301-2.137.2-.668.534-1.314 1.002-1.937.468-.646 1.124-1.18 1.97-1.603 1.158-.601 2.55-.902 4.175-.902 2.137 0 4.163.545 6.078 1.636 2.515 1.425 4.263 3.396 5.243 5.911.556 1.38.835 2.861.835 4.442 0 3.718-1.347 6.712-4.041 8.983-2.672 2.271-6.167 3.407-10.486 3.407-4.297 0-7.804-1.136-10.52-3.407-2.694-2.27-4.04-5.254-4.04-8.95 0-2.76.779-5.154 2.337-7.18 1.58-2.048 3.707-3.44 6.378-4.174l.2.3c-1.135.958-1.992 2.36-2.57 4.208-.58 1.848-.869 3.84-.869 5.978 0 3.607.835 6.479 2.505 8.616 1.67 2.137 3.851 3.206 6.545 3.206 2.716 0 4.898-1.002 6.546-3.006 1.67-2.026 2.504-4.697 2.504-8.015 0-2.003-.311-3.806-.935-5.41-.6-1.625-1.48-2.872-2.638-3.74-1.158-.89-2.449-1.336-3.874-1.336-1.58 0-2.86.412-3.84 1.236-1.38 1.18-2.07 2.683-2.07 4.508 0 .58.077 1.17.233 1.77h-.367z" fill="#fff"/><path d="M118.714 16.44a3.763 3.763 0 01-1.369.935c2.182.311 3.84 1.09 4.976 2.337 1.135 1.225 1.703 2.728 1.703 4.509 0 2.16-.868 3.907-2.605 5.243-1.736 1.336-4.019 2.004-6.846 2.004s-5.043-.69-6.646-2.071c-1.603-1.403-2.404-3.373-2.404-5.91v-.402l.367-.067c.446 3.318 1.826 5.466 4.141 6.446V10.028c-.044-.601-.278-1.091-.701-1.47a2 2 0 00-1.469-.6h-.401v-.335h5.61c2.093 0 3.763.479 5.01 1.436 1.269.958 1.903 2.216 1.903 3.774 0 1.536-.423 2.738-1.269 3.607zm-6.512-7.748v21.373c.735.111 1.581.167 2.538.167 2.137 0 3.796-.568 4.976-1.703 1.202-1.158 1.803-2.65 1.803-4.475 0-.98-.189-1.848-.567-2.605-.357-.757-.813-1.347-1.37-1.77-1.469-1.135-3.54-1.703-6.211-1.703h-.034l-.033-.3h.033c1.136 0 2.104-.368 2.906-1.103.824-.757 1.235-1.914 1.235-3.473 0-2.939-1.614-4.408-4.842-4.408h-.434zm17.09-2.204c1.447-.601 2.839-.902 4.174-.902 1.114 0 2.26.412 3.44 1.236.646.445 1.369 1.313 2.171 2.605.534.89 1.213 2.504 2.037 4.842l4.074 11.555c.935 2.582 1.881 4.63 2.839 6.144.979 1.537 1.87 2.683 2.671 3.44.802.78 1.637 1.325 2.505 1.636.868.312 1.581.468 2.137.468.579 0 1.091-.044 1.536-.133l.034.333c-1.069.357-2.115.535-3.139.535-1.024 0-2.049-.267-3.073-.802-1.024-.512-1.981-1.235-2.872-2.17-1.914-1.937-3.54-4.887-4.875-8.85l-1.303-3.807h-9.15l-2.304 5.944a2.058 2.058 0 00-.167.802c0 .267.111.556.334.868.245.29.612.434 1.102.434h.267V31h-6.713v-.334h.301c.534 0 1.057-.156 1.57-.468.512-.333.935-.823 1.269-1.469l8.282-19.837c-1.203-1.714-2.694-2.571-4.475-2.571-.802 0-1.659.167-2.572.5l-.1-.333zm3.573 15.128h8.449l-2.638-7.781c-.512-1.492-.98-2.66-1.403-3.507l-4.408 11.288zm39.92 9.05h.401V31h-7.28v-.334h.434c.557 0 1.035-.19 1.436-.568.423-.4.657-.89.701-1.47v-8.682h-12.924v8.716c0 3.117-.757 5.21-2.27 6.279-.691.49-1.581.857-2.672 1.102l-.167-.3c1.002-.535 1.736-1.359 2.204-2.472.49-1.113.735-2.65.735-4.609V10.028c0-.579-.212-1.069-.635-1.47a2.112 2.112 0 00-1.503-.6h-.4v-.335h7.28v.334h-.434c-.579 0-1.08.2-1.503.601-.401.401-.612.891-.635 1.47v8.916h12.924V10.63c.023-2.85.657-4.831 1.904-5.944.757-.668 1.781-1.147 3.072-1.436l.167.3c-1.002.534-1.747 1.358-2.237 2.471-.49 1.114-.735 2.65-.735 4.609v17.933c0 .579.2 1.08.601 1.503.423.4.935.601 1.536.601zm37.401 5.41c-1.781.557-3.384.657-4.809.3-1.491-.4-2.783-1.023-3.874-1.87-1.046-.846-2.115-1.858-3.206-3.038l-17.599-19.503v16.697c.022.78.368 1.358 1.035 1.737.312.178.646.267 1.002.267h.635V31h-6.88v-.334h.635a2.02 2.02 0 001.436-.568c.401-.4.601-.89.601-1.47V10.296a27.197 27.197 0 00-.668-.868 27.256 27.256 0 00-.835-1.069 40.273 40.273 0 00-.901-1.035 8.058 8.058 0 00-1.069-1.069c-.312-.267-.679-.579-1.102-.935a6.53 6.53 0 00-2.137-1.102c-.757-.223-1.392-.334-1.904-.334-.534 0-1.102.09-1.703.267l-.134-.334c1.069-.445 2.104-.668 3.106-.668.98 0 1.826.123 2.538.368.712.222 1.481.634 2.304 1.235.824.601 1.492 1.158 2.004 1.67.534.512 1.169 1.18 1.904 2.004l16.831 18.701V9.994c-.023-.578-.234-1.057-.635-1.436-.4-.4-.879-.6-1.436-.6h-.634v-.335h6.879v.334h-.601c-.557 0-1.035.2-1.436.601a1.965 1.965 0 00-.634 1.403v18.868c.222.245.534.613.935 1.102.423.49.712.835.868 1.036l.768.868c.334.378.612.668.835.868.245.223.534.49.868.802.356.334.679.59.969.768l1.035.668a6.467 6.467 0 001.803.7c.69.157 1.247.235 1.67.235.445 0 .913-.045 1.403-.134l.133.334z" fill="#EB5757"/></svg><svg fill="none" viewBox="0 0 37 37" id="annatok" xmlns="http://www.w3.org/2000/svg"><path d="M.66.66h29.577l6.066 17.352L30.23 36.34H.66V.66z" stroke="#808BA6" stroke-width="1.319"/><path d="M24 8.786l1.818-2.105 4.091-.514L34 17.882l-4.648 15.007H24V8.786zM22.29 14.486v5.196H11.815v-5.196z" fill="#808BA6"/><path d="M26.359 4.111a4.11 4.11 0 014.081 4.607 4.111 4.111 0 01-4.081 3.616H7.11a4.111 4.111 0 110-8.222H26.36zM14.434 15.43h5.304v18.129h-5.304z" fill="#808BA6"/><path fill="#808BA6" d="M3 8.223h7V32.89H3z"/></svg><svg fill="none" viewBox="0 0 21 12" id="arrow" xmlns="http://www.w3.org/2000/svg"><path d="M21 6L11 .226v11.547L21 6zM0 7h12V5H0v2z" fill="#F05246"/></svg><svg fill="none" viewBox="0 0 319 57" id="autobahn-logo" xmlns="http://www.w3.org/2000/svg"><path d="M51.061 55.236c-3.667 1.85-7.385 2.154-11.154.909-4.004-1.279-7.452-4.004-10.346-8.177-1.548-2.22-2.877-4.794-3.987-7.722l-1.615-4.29H12.048l-2.675 6.36c-.169.437-.253.79-.253 1.06 0 .269.05.572.152.908.134.303.387.589.757.858a2.56 2.56 0 001.312.353h.404V46H.944v-.505h.454c.774 0 1.531-.218 2.271-.656.774-.47 1.414-1.16 1.918-2.07L16.842 17.08c-1.312-2.96-2.708-4.996-4.189-6.107-1.245-.942-2.44-1.413-3.583-1.413-1.11 0-2.154.168-3.13.505l-.1-.505c2.422-1.245 4.744-1.867 6.965-1.867 2.759 0 5.232 1.077 7.419 3.23 2.153 2.12 4.054 5.182 5.703 9.186l7.318 18.068c2.76 6.83 5.586 11.524 8.48 14.081 1.177 1.043 2.388 1.767 3.633 2.17 1.245.404 2.288.606 3.13.606.874 0 1.715-.1 2.523-.303l.05.505zm-38.155-21.45h10.296l-3.533-9.337a135.46 135.46 0 00-.707-1.918 40.538 40.538 0 01-.606-1.766l-5.45 13.021zM82.046.426c.438 0 .892.016 1.363.05V.98c-3.97.303-6.83 2.187-8.58 5.653-1.144 2.254-1.716 5.114-1.716 8.58V33.23c-.067 4.24-1.43 7.554-4.088 9.943-2.658 2.355-6.46 3.533-11.406 3.533-4.913 0-8.833-1.212-11.76-3.634-2.927-2.456-4.374-5.72-4.34-9.792V13.648c0-.706-.27-1.295-.808-1.766-.505-.471-1.127-.707-1.867-.707h-.808v-.504h14.535v.504h-.807c-1.043 0-1.817.404-2.322 1.212-.235.37-.353.774-.353 1.21v19.28c0 3.567.925 6.394 2.776 8.48 1.85 2.086 4.29 3.129 7.318 3.129h.101c2.995 0 5.45-.976 7.369-2.927 1.918-1.952 2.877-4.627 2.877-8.025V15.213c0-4.542 1.194-8.143 3.583-10.8 2.423-2.659 5.4-3.988 8.933-3.988zm-5 22.004c-1.648-1.581-2.473-3.28-2.473-5.097 0-1.413.455-2.642 1.363-3.685 1.716-2.018 4.122-3.028 7.217-3.028h23.772c1.481-.034 2.776-.151 3.886-.353 1.111-.236 1.817-.42 2.12-.555v8.782h-.505v-.606c0-1.514-.454-2.742-1.362-3.685-.909-.942-2.137-1.43-3.685-1.463h-6.813v29.626c.067 1.211.622 2.12 1.665 2.726.471.269.993.403 1.565.403h.656V46H89.109v-.505h.656c.875 0 1.615-.302 2.22-.908.64-.606.977-1.33 1.01-2.17V12.74h-9.842c-1.379 0-2.59.252-3.633.757-2.12 1.01-3.18 2.59-3.18 4.744 0 1.279.404 2.591 1.211 3.937l-.504.252zm53.062 1.01c-.606-1.279-.908-2.49-.908-3.634 0-1.178.151-2.255.454-3.23.303-1.01.807-1.986 1.514-2.928.707-.975 1.699-1.783 2.978-2.422 1.749-.909 3.852-1.363 6.309-1.363 3.23 0 6.292.824 9.185 2.473 3.802 2.153 6.444 5.131 7.924 8.933.841 2.087 1.262 4.324 1.262 6.713 0 5.62-2.036 10.145-6.107 13.577-4.038 3.432-9.32 5.148-15.848 5.148-6.494 0-11.793-1.716-15.898-5.148-4.071-3.432-6.107-7.941-6.107-13.526 0-4.173 1.178-7.79 3.533-10.852 2.389-3.095 5.602-5.198 9.64-6.309l.303.455c-1.716 1.447-3.012 3.566-3.887 6.359-.874 2.793-1.312 5.804-1.312 9.034 0 5.451 1.262 9.791 3.785 13.022 2.524 3.23 5.821 4.845 9.893 4.845 4.105 0 7.402-1.514 9.892-4.543 2.523-3.061 3.785-7.1 3.785-12.112 0-3.029-.471-5.754-1.413-8.177-.908-2.456-2.237-4.34-3.987-5.652-1.75-1.346-3.701-2.02-5.855-2.02-2.389 0-4.323.623-5.804 1.868-2.086 1.784-3.129 4.055-3.129 6.814 0 .875.118 1.766.353 2.675h-.555z" fill="#fff"/><path d="M180.26 23.995a5.685 5.685 0 01-2.069 1.413c3.297.471 5.804 1.649 7.52 3.533 1.716 1.85 2.574 4.122 2.574 6.814 0 3.263-1.312 5.904-3.937 7.923-2.624 2.02-6.073 3.029-10.346 3.029s-7.621-1.044-10.044-3.13c-2.422-2.12-3.634-5.097-3.634-8.933v-.605l.555-.102c.673 5.014 2.759 8.26 6.259 9.741V14.305c-.068-.909-.421-1.65-1.06-2.221-.606-.606-1.346-.909-2.221-.909h-.605v-.504h8.479c3.162 0 5.686.723 7.57 2.17 1.918 1.447 2.877 3.348 2.877 5.703 0 2.322-.639 4.139-1.918 5.45zm-9.842-11.71v32.302c1.111.168 2.389.252 3.836.252 3.23 0 5.737-.858 7.52-2.574 1.817-1.75 2.726-4.004 2.726-6.763 0-1.48-.286-2.793-.858-3.937-.539-1.144-1.228-2.035-2.07-2.675-2.22-1.716-5.35-2.573-9.387-2.573h-.051l-.05-.455h.05c1.716 0 3.18-.555 4.391-1.665 1.245-1.144 1.868-2.894 1.868-5.25 0-4.44-2.44-6.661-7.319-6.661h-.656zm25.829-3.33c2.187-.909 4.29-1.363 6.309-1.363 1.682 0 3.415.622 5.198 1.867.976.673 2.069 1.986 3.281 3.937.807 1.346 1.833 3.785 3.078 7.318l6.158 17.463c1.413 3.903 2.843 6.999 4.29 9.287 1.48 2.321 2.826 4.054 4.037 5.198 1.212 1.178 2.473 2.002 3.786 2.473 1.312.471 2.389.707 3.23.707.875 0 1.648-.067 2.321-.202l.051.505c-1.615.538-3.197.807-4.744.807-1.548 0-3.096-.404-4.644-1.211-1.547-.774-2.994-1.868-4.34-3.28-2.894-2.928-5.35-7.386-7.369-13.375l-1.968-5.754h-13.829l-3.483 8.984a3.132 3.132 0 00-.252 1.21c0 .405.168.842.505 1.313.37.438.925.656 1.665.656h.404V46h-10.145v-.505h.455c.807 0 1.598-.235 2.372-.706.774-.505 1.413-1.245 1.918-2.221l12.516-29.98c-1.817-2.59-4.071-3.886-6.763-3.886-1.211 0-2.506.253-3.886.757l-.151-.504zm5.4 22.863h12.769l-3.987-11.76c-.774-2.254-1.481-4.02-2.12-5.3l-6.662 17.06zm60.332 13.677h.605V46h-11.002v-.505h.656c.841 0 1.564-.286 2.17-.858a3.311 3.311 0 001.06-2.22V29.294h-19.532v13.173c0 4.71-1.144 7.873-3.432 9.489-1.043.74-2.389 1.295-4.038 1.665l-.252-.454c1.514-.808 2.624-2.053 3.331-3.735.74-1.682 1.11-4.004 1.11-6.965V14.305a2.94 2.94 0 00-.959-2.221 3.19 3.19 0 00-2.271-.909h-.605v-.504h11.002v.504h-.656a3.19 3.19 0 00-2.271.909c-.606.605-.925 1.346-.959 2.22V27.78h19.532V15.213c.034-4.307.993-7.301 2.877-8.984 1.144-1.01 2.692-1.733 4.643-2.17l.252.454c-1.514.808-2.641 2.053-3.381 3.735-.74 1.682-1.11 4.004-1.11 6.965v27.103c0 .874.302 1.631.908 2.27.639.607 1.413.91 2.322.91zm56.524 8.177c-2.692.84-5.114.992-7.268.454-2.254-.606-4.206-1.548-5.854-2.827-1.582-1.278-3.197-2.81-4.846-4.592l-26.598-29.475v25.235c.034 1.178.556 2.053 1.565 2.625.471.269.976.403 1.514.403h.959V46h-10.397v-.505h.959a3.05 3.05 0 002.17-.858c.606-.605.909-1.346.909-2.22V14.708a41.54 41.54 0 00-1.01-1.312 41.618 41.618 0 00-1.261-1.615 62.891 62.891 0 00-1.363-1.565c-.572-.673-1.11-1.21-1.615-1.615-.471-.403-1.026-.875-1.666-1.413a9.85 9.85 0 00-3.23-1.665c-1.144-.337-2.103-.505-2.877-.505-.807 0-1.665.134-2.574.404l-.201-.505c1.615-.673 3.179-1.01 4.693-1.01 1.481 0 2.759.186 3.836.556 1.077.336 2.238.959 3.483 1.867 1.244.909 2.254 1.75 3.028 2.524.807.774 1.766 1.783 2.877 3.028l25.437 28.263V14.254c-.034-.875-.354-1.598-.959-2.17-.606-.606-1.329-.909-2.17-.909h-.959v-.504h10.397v.504h-.909c-.841 0-1.564.303-2.17.909a2.973 2.973 0 00-.959 2.12v28.515c.336.37.807.926 1.413 1.666.639.74 1.077 1.262 1.312 1.565.27.302.656.74 1.161 1.312.505.572.925 1.01 1.262 1.312.37.337.807.74 1.312 1.211.539.505 1.026.892 1.464 1.161l1.564 1.01a9.787 9.787 0 002.726 1.06c1.043.235 1.884.353 2.523.353.673 0 1.38-.068 2.12-.202l.202.505z" fill="#EB5757"/></svg><svg fill="none" viewBox="0 0 300 300" id="favicon" xmlns="http://www.w3.org/2000/svg"><path fill="#101217" d="M0 0h300v300H0z"/><path d="M209.719 241.52c-13.708 6.917-27.604 8.048-41.688 3.395-14.965-4.778-27.855-14.965-38.67-30.558-5.785-8.3-10.752-17.92-14.902-28.861l-6.037-16.034H63.905l-9.998 23.768c-.628 1.635-.943 2.955-.943 3.961 0 1.006.189 2.138.566 3.395.503 1.132 1.446 2.201 2.83 3.207a9.56 9.56 0 004.904 1.321h1.51V207H22.404v-1.886h1.698c2.892 0 5.722-.818 8.489-2.453 2.892-1.76 5.281-4.338 7.168-7.734l42.065-96.014c-4.904-11.067-10.123-18.675-15.657-22.825-4.653-3.521-9.117-5.282-13.393-5.282-4.15 0-8.048.63-11.695 1.887l-.377-1.887c9.054-4.653 17.731-6.98 26.031-6.98 10.312 0 19.555 4.025 27.73 12.074 8.048 7.922 15.153 19.366 21.315 34.331l27.352 67.531c10.312 25.528 20.876 43.071 31.691 52.629 4.401 3.898 8.928 6.602 13.581 8.111 4.653 1.509 8.552 2.263 11.695 2.263 3.27 0 6.414-.377 9.432-1.131l.189 1.886zM67.112 161.351h38.481l-13.204-34.898a515.32 515.32 0 00-2.641-7.168c-1.132-3.144-1.887-5.344-2.264-6.602l-20.372 48.668z" fill="#fff"/><path d="M235.199 124.756c-2.263 2.389-4.841 4.15-7.734 5.281 12.324 1.761 21.693 6.162 28.107 13.205 6.413 6.916 9.62 15.405 9.62 25.465 0 12.199-4.905 22.07-14.714 29.616-9.809 7.545-22.698 11.318-38.669 11.318-15.971 0-28.484-3.899-37.539-11.695-9.054-7.923-13.581-19.052-13.581-33.389v-2.263l2.075-.377c2.515 18.737 10.312 30.873 23.39 36.406V88.538c-.251-3.395-1.572-6.162-3.961-8.3-2.264-2.263-5.03-3.395-8.3-3.395h-2.263v-1.887h31.69c11.821 0 21.253 2.704 28.295 8.112 7.168 5.407 10.752 12.512 10.752 21.315 0 8.677-2.389 15.468-7.168 20.373zm-36.783-43.763v120.725c4.149.629 8.928.943 14.336.943 12.072 0 21.441-3.206 28.106-9.62 6.791-6.539 10.186-14.965 10.186-25.277 0-5.533-1.069-10.438-3.206-14.713-2.013-4.276-4.591-7.609-7.734-9.998-8.3-6.413-19.996-9.62-35.086-9.62h-.189l-.189-1.698h.189c6.414 0 11.884-2.075 16.411-6.225 4.653-4.276 6.98-10.815 6.98-19.618 0-16.6-9.118-24.9-27.352-24.9h-2.452z" fill="#EB5757"/></svg><svg fill="none" viewBox="0 0 1147 175" id="music" xmlns="http://www.w3.org/2000/svg"><g opacity=".02" fill="#fff"><path d="M48.147 150.176c-9.183 0-17.43-3.214-24.744-9.643-7.313-6.428-13.042-15.318-17.187-26.67C2.072 102.374 0 89.449 0 75.088c0-14.361 2.072-27.218 6.216-38.57C10.361 25.03 16.09 16.071 23.403 9.642 30.717 3.214 38.964 0 48.147 0c9.182 0 17.43 3.214 24.744 9.642 7.313 6.429 13.042 15.387 17.186 26.876 4.145 11.352 6.217 24.209 6.217 38.57s-2.072 27.286-6.217 38.775c-4.144 11.352-9.873 20.242-17.186 26.67-7.314 6.429-15.562 9.643-24.744 9.643zm0-39.185c3.575 0 6.785-1.436 9.63-4.309 2.925-3.009 5.24-7.18 6.947-12.514 1.706-5.471 2.56-11.831 2.56-19.08 0-7.249-.854-13.54-2.56-18.875-1.707-5.47-4.022-9.642-6.948-12.514-2.844-3.01-6.054-4.514-9.63-4.514-3.575 0-6.825 1.505-9.75 4.514-2.845 2.872-5.12 7.044-6.826 12.514-1.707 5.334-2.56 11.626-2.56 18.875 0 7.249.853 13.609 2.56 19.08 1.706 5.334 3.981 9.505 6.826 12.514 2.925 2.873 6.175 4.309 9.75 4.309zM106.647 3.283h73.988V39.8h-45.71v16.617h20.356c10.402 0 18.365 3.762 23.891 11.284 5.607 7.386 8.41 18.123 8.41 32.21 0 14.635-3.169 26.124-9.507 34.467-6.338 8.343-15.155 12.514-26.45 12.514h-44.978V3.283zm43.027 109.759c2.844 0 5.038-1.026 6.582-3.077 1.626-2.052 2.438-4.992 2.438-8.822 0-7.386-3.006-11.079-9.02-11.079h-14.749v22.978h14.749zM240.863 150.176c-9.183 0-17.431-3.214-24.744-9.643-7.313-6.428-13.042-15.318-17.187-26.67-4.144-11.489-6.216-24.414-6.216-38.775 0-14.361 2.072-27.218 6.216-38.57 4.145-11.489 9.874-20.447 17.187-26.876C223.432 3.214 231.68 0 240.863 0c9.182 0 17.43 3.214 24.744 9.642 7.313 6.429 13.042 15.387 17.186 26.876 4.145 11.352 6.217 24.209 6.217 38.57s-2.072 27.286-6.217 38.775c-4.144 11.352-9.873 20.242-17.186 26.67-7.314 6.429-15.562 9.643-24.744 9.643zm0-39.185c3.575 0 6.785-1.436 9.629-4.309 2.926-3.009 5.242-7.18 6.948-12.514 1.706-5.471 2.56-11.831 2.56-19.08 0-7.249-.854-13.54-2.56-18.875-1.706-5.47-4.022-9.642-6.948-12.514-2.844-3.01-6.054-4.514-9.629-4.514-3.576 0-6.826 1.505-9.751 4.514-2.845 2.872-5.12 7.044-6.826 12.514-1.707 5.334-2.56 11.626-2.56 18.875 0 7.249.853 13.609 2.56 19.08 1.706 5.334 3.981 9.505 6.826 12.514 2.925 2.873 6.175 4.309 9.751 4.309zM340.44 3.283c7.882 0 14.749 2.188 20.6 6.565 5.85 4.376 10.36 10.668 13.529 18.874 3.17 8.206 4.754 17.78 4.754 28.722s-1.584 20.516-4.754 28.722c-3.169 8.207-7.679 14.498-13.529 18.875-5.851 4.377-12.718 6.565-20.6 6.565h-12.311v35.287h-28.766V3.283h41.077zm-1.828 70.984c3.9 0 6.826-1.436 8.776-4.308 1.95-3.009 2.925-7.18 2.925-12.515 0-5.334-.975-9.437-2.925-12.31-1.95-3.008-4.876-4.513-8.776-4.513h-10.483v33.646h10.483zM471.462 3.283L437.211 111.4c-4.063 12.857-9.061 22.636-14.993 29.338-5.85 6.701-12.311 10.052-19.38 10.052-5.445 0-10.971-1.914-16.578-5.744l6.704-34.877c3.576 1.641 6.501 2.462 8.777 2.462 2.112 0 3.9-.616 5.363-1.847 1.544-1.23 3.006-3.282 4.388-6.154L378.825 3.283h30.351l16.943 60.521 17.552-60.521h27.791zM571.217 109.349V175h-26.328v-28.107h-48.513V175h-26.328v-65.651h2.438c4.957 0 8.451-5.265 10.482-15.797 2.032-10.531 3.332-26.055 3.901-46.57l.975-43.7h72.159V109.35h11.214zm-59.36-58.265c-.325 13.814-.976 25.577-1.951 35.288-.975 9.574-2.478 17.233-4.51 22.977h26.329V40.826H512.1l-.243 10.258zM624.271 150.176c-9.182 0-17.43-3.214-24.743-9.643-7.314-6.428-13.043-15.318-17.187-26.67-4.144-11.489-6.217-24.414-6.217-38.775 0-14.361 2.073-27.218 6.217-38.57 4.144-11.489 9.873-20.447 17.187-26.876C606.841 3.214 615.089 0 624.271 0c9.183 0 17.431 3.214 24.744 9.642 7.314 6.429 13.042 15.387 17.187 26.876 4.144 11.352 6.216 24.209 6.216 38.57s-2.072 27.286-6.216 38.775c-4.145 11.352-9.873 20.242-17.187 26.67-7.313 6.429-15.561 9.643-24.744 9.643zm0-39.185c3.576 0 6.786-1.436 9.63-4.309 2.925-3.009 5.241-7.18 6.947-12.514 1.707-5.471 2.56-11.831 2.56-19.08 0-7.249-.853-13.54-2.56-18.875-1.706-5.47-4.022-9.642-6.947-12.514-2.844-3.01-6.054-4.514-9.63-4.514-3.575 0-6.826 1.505-9.751 4.514-2.844 2.872-5.119 7.044-6.826 12.514-1.706 5.334-2.559 11.626-2.559 18.875 0 7.249.853 13.609 2.559 19.08 1.707 5.334 3.982 9.505 6.826 12.514 2.925 2.873 6.176 4.309 9.751 4.309zM748.349 71.6c4.794 2.873 8.451 7.18 10.97 12.925 2.519 5.608 3.778 12.515 3.778 20.721 0 12.857-3.047 23.046-9.141 30.569-6.014 7.385-14.546 11.078-25.598 11.078h-45.587V3.283h43.272c10.563 0 18.73 3.282 24.5 9.847 5.85 6.565 8.776 15.797 8.776 27.697 0 6.838-.975 12.856-2.926 18.053-1.869 5.198-4.55 9.438-8.044 12.72zM711.05 58.47h12.189c4.713 0 7.07-3.488 7.07-10.463 0-7.249-2.357-10.873-7.07-10.873H711.05V58.47zm15.968 54.572c4.713 0 7.069-3.829 7.069-11.489 0-7.385-2.356-11.078-7.069-11.078H711.05v22.567h15.968zM833.57 121.864h-32.423l-5.729 25.029h-29.253l37.298-143.61h28.279l37.298 143.61h-29.741l-5.729-25.029zm-7.923-34.877l-8.288-36.108-8.289 36.108h16.577zM961.02 3.283v143.61h-28.766v-52.93h-26.572v52.93h-28.766V3.283h28.766v50.879h26.572V3.282h28.766zM976.19 3.283h28.28V77.96l29.37-74.677h27.06v143.61h-28.27V72.421l-29.26 74.472h-27.18V3.283zM1147 110.375v36.518h-70.94V3.283h69.36V39.8h-41.08v16.823h36.08V91.5h-36.08v18.874H1147z"/></g></svg><svg fill="none" viewBox="0 0 1158 175" id="stars" xmlns="http://www.w3.org/2000/svg"><g opacity=".02" fill="#fff"><path d="M50.208 72.576c3.619 3.135 6.43 7.7 8.433 13.697 2.068 5.997 3.101 12.812 3.101 20.444 0 8.996-1.518 16.832-4.555 23.511-2.973 6.542-7.011 11.585-12.116 15.128-5.04 3.408-10.662 5.111-16.865 5.111-9.887 0-19.289-4.157-28.206-12.47l6.688-33.324c3.166 2.726 6.462 4.838 9.887 6.338 3.424 1.362 6.655 2.044 9.692 2.044 3.683 0 6.656-1.09 8.918-3.271 2.326-2.181 3.489-5.384 3.489-9.609 0-5.724-2.23-8.586-6.688-8.586h-18.32V56.834h16.381c1.939 0 3.393-.75 4.362-2.249 1.034-1.499 1.55-3.611 1.55-6.337 0-3.544-.904-6.27-2.713-8.178-1.745-1.908-4.071-2.862-6.979-2.862-2.714 0-5.654.818-8.82 2.453-3.166 1.636-6.171 3.953-9.014 6.951L1.745 10.835C9.24 3.612 17.382 0 26.17 0c5.88 0 11.308 1.704 16.284 5.111 5.04 3.407 9.047 8.382 12.019 14.924 3.037 6.406 4.556 13.97 4.556 22.693 0 6.406-.776 12.198-2.327 17.377-1.55 5.18-3.715 9.336-6.494 12.47zM122.019 71.963c3.812 2.862 6.72 7.155 8.723 12.88 2.003 5.587 3.005 12.47 3.005 20.648 0 12.811-2.423 22.965-7.27 30.461-4.781 7.36-11.566 11.04-20.354 11.04h-36.25V3.884h34.408c8.401 0 14.895 3.271 19.483 9.813 4.652 6.543 6.978 15.742 6.978 27.6 0 6.814-.775 12.811-2.326 17.99-1.486 5.18-3.619 9.405-6.397 12.676zm-29.66-13.084h9.693c3.748 0 5.622-3.476 5.622-10.427 0-7.223-1.874-10.835-5.622-10.835h-9.693v21.262zm12.698 54.38c3.747 0 5.621-3.816 5.621-11.448 0-7.36-1.874-11.04-5.621-11.04H92.359v22.488h12.698zM198.316 110.602v36.39h-56.411V3.884h55.151v36.39h-32.664V57.04h28.69v34.754h-28.69v18.809h33.924zM253.054 72.576c3.619 3.135 6.43 7.7 8.433 13.697 2.068 5.997 3.101 12.812 3.101 20.444 0 8.996-1.518 16.832-4.555 23.511-2.973 6.542-7.011 11.585-12.116 15.128-5.04 3.408-10.662 5.111-16.865 5.111-9.887 0-19.289-4.157-28.206-12.47l6.688-33.324c3.166 2.726 6.462 4.838 9.887 6.338 3.424 1.362 6.655 2.044 9.692 2.044 3.683 0 6.656-1.09 8.918-3.271 2.326-2.181 3.489-5.384 3.489-9.609 0-5.724-2.229-8.586-6.688-8.586h-18.319V56.834h16.38c1.939 0 3.393-.75 4.362-2.249 1.034-1.499 1.551-3.611 1.551-6.337 0-3.544-.905-6.27-2.714-8.178-1.745-1.908-4.071-2.862-6.979-2.862-2.714 0-5.654.818-8.82 2.453-3.166 1.636-6.171 3.953-9.014 6.951l-6.688-35.777C212.086 3.612 220.228 0 229.016 0c5.881 0 11.308 1.704 16.284 5.111 5.04 3.407 9.047 8.382 12.019 14.924 3.037 6.406 4.556 13.97 4.556 22.693 0 6.406-.776 12.198-2.327 17.377-1.551 5.18-3.715 9.336-6.494 12.47zM348.806 109.579V175H327.87v-28.008h-38.577V175h-20.936v-65.421h1.938c3.942 0 6.72-5.247 8.336-15.741 1.615-10.495 2.649-25.964 3.101-46.408l.776-43.546h57.381V109.58h8.917zm-47.204-58.06c-.258 13.765-.775 25.486-1.55 35.163-.776 9.54-1.971 17.173-3.587 22.897h20.937V41.297h-15.606l-.194 10.222zM423.368 3.884v143.108h-22.875V94.247h-21.13v52.745h-22.875V3.884h22.875v50.701h21.13v-50.7h22.875zM471.972 47.839c8.465 0 14.991 4.02 19.579 12.062 4.588 7.905 6.882 19.626 6.882 35.163 0 16.764-2.617 29.644-7.851 38.639-5.234 8.859-12.407 13.289-21.518 13.289H435.43V3.884h22.487V47.84h14.055zm-4.459 65.42c2.326 0 4.233-1.499 5.719-4.497 1.486-3.135 2.229-7.428 2.229-12.88 0-9.54-2.649-14.31-7.948-14.31h-9.596v31.687h9.596zM504.636 3.884h22.487v143.108h-22.487V3.884zM595.584 110.602v36.39h-56.412V3.884h55.152v36.39H561.66V57.04h28.69v34.754h-28.69v18.809h33.924zM681.804 122.05h-25.782l-4.556 24.942h-23.262L657.863 3.884h22.487l29.66 143.108h-23.65l-4.556-24.942zm-6.3-34.754l-6.591-35.982-6.591 35.982h13.182zM748.937 3.884c6.268 0 11.728 2.181 16.38 6.542 4.653 4.362 8.239 10.631 10.759 18.809 2.52 8.177 3.78 17.718 3.78 28.621 0 10.904-1.26 20.444-3.78 28.622-2.52 8.177-6.106 14.447-10.759 18.808-4.652 4.362-10.112 6.542-16.38 6.542h-9.79v35.164h-22.875V3.884h32.665zm-1.454 70.736c3.102 0 5.428-1.43 6.979-4.293 1.55-2.998 2.326-7.155 2.326-12.47 0-5.316-.776-9.405-2.326-12.267-1.551-2.998-3.877-4.498-6.979-4.498h-8.336V74.62h8.336zM843.044 41.297h-19.87v105.695h-22.487V41.297h-19.87V3.884h62.227v37.413zM850.588 3.884h22.487V78.3l23.36-74.416h21.517v143.108h-22.487V72.78l-23.262 74.212h-21.615V3.884zM964.122 150.263c-7.173 0-13.634-3.135-19.385-9.404-5.751-6.406-10.275-15.265-13.57-26.577-3.231-11.449-4.846-24.397-4.846-38.844 0-14.447 1.615-27.327 4.846-38.639 3.295-11.448 7.819-20.308 13.57-26.577 5.751-6.406 12.212-9.609 19.385-9.609 6.591 0 12.471 2.454 17.641 7.36 5.169 4.907 9.434 11.994 12.794 21.262l-14.442 27.19c-4.2-11.176-9.143-16.764-14.83-16.764-4.782 0-8.626 3.271-11.534 9.813-2.908 6.406-4.362 15.06-4.362 25.964 0 10.903 1.454 19.626 4.362 26.168 2.908 6.406 6.752 9.609 11.534 9.609 5.687 0 10.63-5.588 14.83-16.764l14.442 27.19c-3.36 9.268-7.625 16.355-12.794 21.262-5.17 4.907-11.05 7.36-17.641 7.36zM1058.76 41.297h-19.87v105.695h-22.48V41.297h-19.874V3.884h62.224v37.413zM1102.85 47.839c8.46 0 14.99 4.02 19.58 12.062 4.59 7.905 6.88 19.626 6.88 35.163 0 16.764-2.62 29.644-7.85 38.639-5.24 8.859-12.41 13.289-21.52 13.289h-33.63V3.884h22.48V47.84h14.06zm-4.46 65.42c2.33 0 4.23-1.499 5.72-4.497 1.48-3.135 2.23-7.428 2.23-12.88 0-9.54-2.65-14.31-7.95-14.31h-9.6v31.687h9.6zm37.12-109.375H1158v143.108h-22.49V3.884z"/></g></svg><svg fill="none" viewBox="0 0 1160 151" id="work" xmlns="http://www.w3.org/2000/svg"><g opacity=".02" fill="#fff"><path d="M39.28 3.898c7.537 0 14.103 2.188 19.697 6.565 5.595 4.377 9.908 10.669 12.938 18.875 3.03 8.207 4.546 17.781 4.546 28.723s-1.516 20.517-4.546 28.723c-3.03 8.206-7.343 14.498-12.938 18.875-5.594 4.377-12.16 6.565-19.698 6.565H27.507v35.288H0V3.898h39.28zM37.53 74.885c3.73 0 6.527-1.437 8.392-4.309 1.865-3.009 2.797-7.18 2.797-12.515 0-5.334-.932-9.437-2.797-12.31-1.865-3.009-4.662-4.513-8.392-4.513H27.507v33.647h10.024zM138.28 122.482h-31.004l-5.478 25.03H73.824L109.492 3.898h27.041l35.666 143.614h-28.44l-5.478-25.03zm-7.576-34.877l-7.926-36.11-7.926 36.11h15.852zM179.728 3.898h70.75v36.52h-43.709v16.617h19.465c9.946 0 17.561 3.762 22.845 11.284 5.362 7.386 8.042 18.123 8.042 32.211 0 14.635-3.03 26.124-9.091 34.467-6.061 8.344-14.492 12.515-25.293 12.515h-43.009V3.898zm41.145 109.762c2.719 0 4.817-1.025 6.294-3.077 1.554-2.052 2.331-4.992 2.331-8.822 0-7.386-2.875-11.079-8.625-11.079h-14.104v22.978h14.104zM308.07 150.795c-8.781 0-16.667-3.214-23.661-9.643-6.993-6.428-12.471-15.319-16.434-26.671-3.963-11.489-5.945-24.414-5.945-38.776 0-14.361 1.982-27.218 5.945-38.57 3.963-11.49 9.441-20.448 16.434-26.877C291.403 3.83 299.289.615 308.07.615s16.668 3.215 23.661 9.643c6.993 6.429 12.471 15.387 16.434 26.877 3.963 11.352 5.945 24.209 5.945 38.57 0 14.362-1.982 27.287-5.945 38.776-3.963 11.352-9.441 20.243-16.434 26.671-6.993 6.429-14.88 9.643-23.661 9.643zm0-39.186c3.419 0 6.488-1.436 9.208-4.309 2.797-3.009 5.012-7.18 6.644-12.515 1.631-5.47 2.447-11.83 2.447-19.08 0-7.249-.816-13.54-2.447-18.875-1.632-5.47-3.847-9.642-6.644-12.515-2.72-3.009-5.789-4.513-9.208-4.513-3.419 0-6.527 1.504-9.324 4.513-2.72 2.873-4.896 7.044-6.528 12.515-1.631 5.334-2.447 11.626-2.447 18.875 0 7.25.816 13.61 2.447 19.08 1.632 5.335 3.808 9.506 6.528 12.515 2.797 2.873 5.905 4.309 9.324 4.309zM432.339 41.443h-23.894v106.069h-27.041V41.442H357.51V3.899h74.829v37.545zM494.891 122.482h-31.004l-5.478 25.03h-27.973L466.102 3.898h27.041l35.666 143.614h-28.44l-5.478-25.03zm-7.576-34.877l-7.926-36.11-7.926 36.11h15.852zM612.311 150.795c-8.625 0-16.396-3.146-23.311-9.438-6.916-6.428-12.355-15.318-16.318-26.671-3.885-11.489-5.828-24.483-5.828-38.98 0-14.499 1.943-27.424 5.828-38.777 3.963-11.489 9.402-20.38 16.318-26.67 6.915-6.43 14.686-9.644 23.311-9.644 7.926 0 14.997 2.462 21.213 7.386 6.216 4.924 11.345 12.037 15.386 21.337l-17.367 27.287c-5.051-11.216-10.995-16.823-17.833-16.823-5.75 0-10.374 3.282-13.87 9.848-3.497 6.428-5.245 15.113-5.245 26.055s1.748 19.696 5.245 26.261c3.496 6.428 8.12 9.643 13.87 9.643 6.838 0 12.782-5.608 17.833-16.824l17.367 27.287c-4.041 9.301-9.17 16.413-15.386 21.337-6.216 4.924-13.287 7.386-21.213 7.386zM746.829 72.833c4.352 3.146 7.732 7.728 10.141 13.746 2.486 6.018 3.729 12.857 3.729 20.516 0 9.027-1.826 16.892-5.478 23.594-3.574 6.565-8.431 11.626-14.569 15.182-6.061 3.419-12.821 5.129-20.281 5.129-11.889 0-23.195-4.172-33.918-12.515l8.043-33.442c3.807 2.736 7.77 4.856 11.888 6.361 4.119 1.367 8.004 2.051 11.656 2.051 4.429 0 8.003-1.094 10.723-3.282 2.797-2.189 4.196-5.403 4.196-9.643 0-5.745-2.681-8.617-8.042-8.617h-22.029V57.035h19.698c2.331 0 4.079-.752 5.245-2.256 1.243-1.505 1.865-3.625 1.865-6.36 0-3.557-1.088-6.292-3.264-8.207-2.098-1.915-4.895-2.872-8.392-2.872-3.264 0-6.799.82-10.607 2.462-3.807 1.64-7.42 3.966-10.839 6.975l-8.043-35.903C697.565 3.624 707.356 0 717.923 0c7.071 0 13.599 1.71 19.582 5.13 6.061 3.418 10.878 8.41 14.453 14.976 3.652 6.428 5.478 14.02 5.478 22.773 0 6.428-.933 12.242-2.798 17.439-1.864 5.197-4.467 9.37-7.809 12.515zM828.054 122.482H797.05l-5.478 25.03h-27.973L799.265 3.898h27.041l35.666 143.614h-28.44l-5.478-25.03zm-7.576-34.877l-7.926-36.11-7.926 36.11h15.852zM950.248 3.898v143.614h-27.041V41.442h-18.648l-.234 16.62c-.31 20.516-1.243 37.339-2.797 50.469-1.554 13.131-4.274 23.389-8.159 30.775-3.885 7.249-9.441 10.873-16.667 10.873-3.652 0-7.538-.889-11.656-2.667l1.399-38.776c1.01.411 2.02.616 3.03.616 2.875 0 5.051-2.052 6.527-6.155 1.554-4.103 2.603-9.574 3.147-16.413.544-6.839.933-15.798 1.166-26.876l1.049-56.01h68.884zM1006.15 150.795c-8.777 0-16.664-3.214-23.657-9.643-6.994-6.428-12.472-15.319-16.435-26.671-3.963-11.489-5.944-24.414-5.944-38.776 0-14.361 1.981-27.218 5.944-38.57 3.963-11.49 9.441-20.448 16.435-26.877 6.993-6.428 14.88-9.643 23.657-9.643 8.78 0 16.67 3.215 23.66 9.643 7 6.429 12.48 15.387 16.44 26.877 3.96 11.352 5.94 24.209 5.94 38.57 0 14.362-1.98 27.287-5.94 38.776-3.96 11.352-9.44 20.243-16.44 26.671-6.99 6.429-14.88 9.643-23.66 9.643zm0-39.186c3.42 0 6.49-1.436 9.21-4.309 2.8-3.009 5.01-7.18 6.65-12.515 1.63-5.47 2.44-11.83 2.44-19.08 0-7.249-.81-13.54-2.44-18.875-1.64-5.47-3.85-9.642-6.65-12.515-2.72-3.009-5.79-4.513-9.21-4.513-3.42 0-6.524 1.504-9.321 4.513-2.72 2.873-4.895 7.044-6.527 12.515-1.632 5.334-2.448 11.626-2.448 18.875 0 7.25.816 13.61 2.448 19.08 1.632 5.335 3.807 9.506 6.527 12.515 2.797 2.873 5.901 4.309 9.321 4.309zM1134.94 147.512l-.23-65.447-17.72 52.522h-12.12l-17.72-50.265v63.19h-25.06V3.898h22.61l26.58 76.526 25.87-76.526h22.62l.23 143.614h-25.06z"/></g></svg></svg>